{
    "asset" : {
        "generator" : "Khronos glTF Blender I/O v1.4.40",
        "version" : "2.0"
    },
    "scene" : 0,
    "scenes" : [
        {
            "name" : "Scene",
            "nodes" : [
                0,
                1
            ]
        }
    ],
    "nodes" : [
        {
            "name" : "Camera",
            "rotation" : [
                0.4420567452907562,
                0.26109135150909424,
                -0.13622230291366577,
                0.8472665548324585
            ],
            "translation" : [
                0.36397725343704224,
                0.49423152208328247,
                0.5103186964988708
            ]
        },
        {
            "mesh" : 0,
            "name" : "Printer"
        }
    ],
    "materials" : [
        {
            "doubleSided" : true,
            "emissiveFactor" : [
                1,
                1,
                1
            ],
            "emissiveTexture" : {
                "index" : 0,
                "texCoord" : 0
            },
            "name" : "Printer",
            "normalTexture" : {
                "index" : 1,
                "texCoord" : 0
            },
            "pbrMetallicRoughness" : {
                "baseColorTexture" : {
                    "index" : 2,
                    "texCoord" : 0
                },
                "metallicRoughnessTexture" : {
                    "index" : 3,
                    "texCoord" : 0
                }
            }
        }
    ],
    "meshes" : [
        {
            "name" : "Printer",
            "primitives" : [
                {
                    "attributes" : {
                        "POSITION" : 0,
                        "NORMAL" : 1,
                        "TEXCOORD_0" : 2
                    },
                    "indices" : 3,
                    "material" : 0
                }
            ]
        }
    ],
    "textures" : [
        {
            "sampler" : 0,
            "source" : 0
        },
        {
            "sampler" : 0,
            "source" : 1
        },
        {
            "sampler" : 0,
            "source" : 2
        },
        {
            "sampler" : 0,
            "source" : 3
        }
    ],
    "images" : [
        {
            "bufferView" : 4,
            "mimeType" : "image/jpeg",
            "name" : "Printer_Emissive"
        },
        {
            "bufferView" : 5,
            "mimeType" : "image/jpeg",
            "name" : "Printer_NormalOpenGL"
        },
        {
            "bufferView" : 6,
            "mimeType" : "image/jpeg",
            "name" : "Printer_Base Color"
        },
        {
            "bufferView" : 7,
            "mimeType" : "image/png",
            "name" : "Printer_Metallic-Printer_Roughness"
        }
    ],
    "accessors" : [
        {
            "bufferView" : 0,
            "componentType" : 5126,
            "count" : 624,
            "max" : [
                0.17020539939403534,
                0.11487779021263123,
                0.11766136437654495
            ],
            "min" : [
                -0.17020484805107117,
                2.4711451374059834e-07,
                -0.15359316766262054
            ],
            "type" : "VEC3"
        },
        {
            "bufferView" : 1,
            "componentType" : 5126,
            "count" : 624,
            "type" : "VEC3"
        },
        {
            "bufferView" : 2,
            "componentType" : 5126,
            "count" : 624,
            "type" : "VEC2"
        },
        {
            "bufferView" : 3,
            "componentType" : 5123,
            "count" : 2214,
            "type" : "SCALAR"
        }
    ],
    "bufferViews" : [
        {
            "buffer" : 0,
            "byteLength" : 7488,
            "byteOffset" : 0
        },
        {
            "buffer" : 0,
            "byteLength" : 7488,
            "byteOffset" : 7488
        },
        {
            "buffer" : 0,
            "byteLength" : 4992,
            "byteOffset" : 14976
        },
        {
            "buffer" : 0,
            "byteLength" : 4428,
            "byteOffset" : 19968
        },
        {
            "buffer" : 0,
            "byteLength" : 66672,
            "byteOffset" : 24396
        },
        {
            "buffer" : 0,
            "byteLength" : 242380,
            "byteOffset" : 91068
        },
        {
            "buffer" : 0,
            "byteLength" : 477805,
            "byteOffset" : 333448
        },
        {
            "buffer" : 0,
            "byteLength" : 1002116,
            "byteOffset" : 811256
        }
    ],
    "samplers" : [
        {
            "magFilter" : 9729,
            "minFilter" : 9986
        }
    ],
    "buffers" : [
        {
            "byteLength" : 1813372,
            "uri" : "data:application/octet-stream;base64,"
        }
    ]
}
