{"accessors" : [{"bufferView" : 0, "byteOffset" : 0, "componentType" : 5123, "count" : 30000, "type" : "SCALAR", "max" : [5075], "min" : [0]}, {"bufferView" : 1, "byteOffset" : 0, "componentType" : 5126, "count" : 5076, "type" : "VEC3", "max" : [4.425189971923828, 4.556009769439697, 3.781480073928833], "min" : [-4.9976301193237305, -1.171820044517517, -2.5004899501800537]}], "asset" : {"generator" : "Aspose.3D 21.1", "version" : "2.0"}, "buffers" : [{"uri" : "buffer.bin", "byteLength" : 420008}], "bufferViews" : [{"buffer" : 0, "byteOffset" : 0, "byteLength" : 60000, "target" : 34963}, {"buffer" : 0, "byteOffset" : 60004, "byteLength" : 360000, "byteStride" : 12, "target" : 34962}], "meshes" : [{"primitives" : [{"attributes" : {"POSITION" : 1}, "indices" : 0, "mode" : 4}]}], "nodes" : [{"mesh" : 0, "name" : "model"}], "scene" : 0, "scenes" : [{"nodes" : [0]}]}